<?xml version="1.0" encoding="utf-8"?>
<!-- Generator: Adobe Illustrator 25.2.1, SVG Export Plug-In . SVG Version: 6.00 Build 0)  -->
<svg version="1.1" xmlns="http://www.w3.org/2000/svg" xmlns:xlink="http://www.w3.org/1999/xlink" x="0px" y="0px"
	 viewBox="0 0 500 500" style="enable-background:new 0 0 500 500;" xml:space="preserve">
<style type="text/css">
	.st0{fill:#FFFFFF;stroke:#000000;stroke-width:0.75;stroke-miterlimit:10;}
</style>
<g id="Layer_2">
	<path class="st0" d="M471.18,497.35H28.82c-14.46,0-26.18-11.72-26.18-26.18V28.82c0-14.46,11.72-26.18,26.18-26.18h442.35
		c14.46,0,26.18,11.72,26.18,26.18v442.35C497.35,485.63,485.63,497.35,471.18,497.35z"/>
</g>
<g id="Layer_3">
	<path d="M280.02,248.01l45.52-23.83c0,0-45.52,27.27-45.52,65.85"/>
	<path d="M220.25,220.64l-45.52,23.83c0,0,45.52-27.27,45.52-65.85"/>
	<g>
		<path d="M283.68,87.8c2.44-5.07,7.23-8.74,14.37-10.99c6.01-1.88,13.06-3.43,21.14-4.65c8.08-1.22,15.03-1.92,20.86-2.11V50.03
			h-180.1v20.01c5.45,0.38,12.45,1.55,21,3.52c8.55,1.97,15.64,4.09,21.28,6.34c7.7,3.01,12.59,6.72,14.66,11.13
			c2.07,4.42,3.1,9.91,3.1,16.49V220.8l60.03-34.66v-81.43C280.02,98.51,281.24,92.87,283.68,87.8z"/>
		<path d="M219.98,397.27c0,7.52-1.41,13.39-4.23,17.62c-2.82,4.23-7.33,7.57-13.53,10.01c-3.95,1.51-10.71,2.63-20.29,3.38
			c-9.58,0.75-16.91,1.32-21.98,1.69v20.01h180.1v-20.01c-6.2-0.18-13.77-1.17-22.69-2.96c-8.93-1.78-15.36-3.43-19.31-4.93
			c-6.58-2.82-11.23-6.62-13.95-11.41c-2.73-4.79-4.09-10.29-4.09-16.49V247.95l-60.03,34.66V397.27z"/>
	</g>
</g>
</svg>
